<?xml version="1.0" encoding="UTF-8" standalone="no"?>
<!DOCTYPE svg PUBLIC "-//W3C//DTD SVG 1.1//EN"
 "http://www.w3.org/Graphics/SVG/1.1/DTD/svg11.dtd">
<!-- Generated by graphviz version 2.40.1 (20161225.0304)
 -->
<!-- Title: RickAndMorty Pages: 1 -->
<svg width="725pt" height="260pt"
 viewBox="0.00 0.00 725.28 260.00" xmlns="http://www.w3.org/2000/svg" xmlns:xlink="http://www.w3.org/1999/xlink">
<g id="graph0" class="graph" transform="scale(1 1) rotate(0) translate(4 256)">
<title>RickAndMorty</title>
<polygon fill="#ffffff" stroke="transparent" points="-4,4 -4,-256 721.2784,-256 721.2784,4 -4,4"/>
<!-- :app -->
<g id="node1" class="node">
<title>:app</title>
<polygon fill="none" stroke="#000000" points="361.8759,-252 307.8759,-252 307.8759,-216 361.8759,-216 361.8759,-252"/>
<text text-anchor="middle" x="334.8759" y="-229.8" font-family="Helvetica,sans-Serif" font-size="14.00" fill="#000000">:app</text>
</g>
<!-- :features:home -->
<g id="node2" class="node">
<title>:features:home</title>
<polygon fill="none" stroke="#000000" points="170.7383,-180 61.0135,-180 61.0135,-144 170.7383,-144 170.7383,-180"/>
<text text-anchor="middle" x="115.8759" y="-157.8" font-family="Helvetica,sans-Serif" font-size="14.00" fill="#000000">:features:home</text>
</g>
<!-- :app&#45;&gt;:features:home -->
<g id="edge1" class="edge">
<title>:app&#45;&gt;:features:home</title>
<path fill="none" stroke="#000000" d="M307.5822,-225.0267C275.9886,-214.6398 222.8788,-197.179 180.561,-183.2663"/>
<polygon fill="#0000ff" stroke="#000000" points="181.4767,-179.8831 170.8838,-180.0848 179.2904,-186.533 181.4767,-179.8831"/>
</g>
<!-- :features:details -->
<g id="node3" class="node">
<title>:features:details</title>
<polygon fill="none" stroke="#000000" points="717.1811,-180 602.5707,-180 602.5707,-144 717.1811,-144 717.1811,-180"/>
<text text-anchor="middle" x="659.8759" y="-157.8" font-family="Helvetica,sans-Serif" font-size="14.00" fill="#000000">:features:details</text>
</g>
<!-- :app&#45;&gt;:features:details -->
<g id="edge2" class="edge">
<title>:app&#45;&gt;:features:details</title>
<path fill="none" stroke="#000000" d="M362.0183,-228.5898C408.5626,-219.2317 506.5503,-199.1792 588.8759,-180 589.9596,-179.7475 591.0521,-179.4913 592.1516,-179.2319"/>
<polygon fill="#0000ff" stroke="#000000" points="593.278,-182.561 602.1857,-176.8249 591.6451,-175.7542 593.278,-182.561"/>
</g>
<!-- :features:filter -->
<g id="node4" class="node">
<title>:features:filter</title>
<polygon fill="none" stroke="#000000" points="547.1671,-180 446.5847,-180 446.5847,-144 547.1671,-144 547.1671,-180"/>
<text text-anchor="middle" x="496.8759" y="-157.8" font-family="Helvetica,sans-Serif" font-size="14.00" fill="#000000">:features:filter</text>
</g>
<!-- :app&#45;&gt;:features:filter -->
<g id="edge3" class="edge">
<title>:app&#45;&gt;:features:filter</title>
<path fill="none" stroke="#000000" d="M361.9911,-221.9488C385.1356,-211.6623 419.0222,-196.6016 447.0395,-184.1495"/>
<polygon fill="#0000ff" stroke="#000000" points="448.5754,-187.2971 456.2921,-180.0373 445.7324,-180.9004 448.5754,-187.2971"/>
</g>
<!-- :core:common:navigation -->
<g id="node5" class="node">
<title>:core:common:navigation</title>
<polygon fill="none" stroke="#000000" points="713.2423,-108 540.5095,-108 540.5095,-72 713.2423,-72 713.2423,-108"/>
<text text-anchor="middle" x="626.8759" y="-85.8" font-family="Helvetica,sans-Serif" font-size="14.00" fill="#000000">:core:common:navigation</text>
</g>
<!-- :app&#45;&gt;:core:common:navigation -->
<g id="edge4" class="edge">
<title>:app&#45;&gt;:core:common:navigation</title>
<path fill="none" stroke="#000000" d="M362.2137,-229.6102C413.9173,-220.9401 523.7302,-200.6615 555.8759,-180 580.2666,-164.323 599.8907,-137.3414 612.2741,-116.9992"/>
<polygon fill="#00ffff" stroke="#000000" points="615.4041,-118.5807 617.4454,-108.1844 609.3664,-115.0386 615.4041,-118.5807"/>
</g>
<!-- :core:common:domain -->
<g id="node6" class="node">
<title>:core:common:domain</title>
<polygon fill="none" stroke="#000000" points="223.3408,-36 68.411,-36 68.411,0 223.3408,0 223.3408,-36"/>
<text text-anchor="middle" x="145.8759" y="-13.8" font-family="Helvetica,sans-Serif" font-size="14.00" fill="#000000">:core:common:domain</text>
</g>
<!-- :app&#45;&gt;:core:common:domain -->
<g id="edge5" class="edge">
<title>:app&#45;&gt;:core:common:domain</title>
<path fill="none" stroke="#000000" d="M307.4836,-232.3617C242.4687,-227.9529 81.2703,-213.8059 40.8759,-180 2.933,-148.2457 -13.7022,-113.0785 13.8759,-72 24.6882,-55.8948 41.2451,-44.5896 59.0179,-36.6548"/>
<polygon fill="#00ffff" stroke="#000000" points="60.4763,-39.8397 68.3988,-32.8051 57.8187,-33.3637 60.4763,-39.8397"/>
</g>
<!-- :core:data:local -->
<g id="node7" class="node">
<title>:core:data:local</title>
<polygon fill="none" stroke="#000000" points="133.2903,-108 22.4615,-108 22.4615,-72 133.2903,-72 133.2903,-108"/>
<text text-anchor="middle" x="77.8759" y="-85.8" font-family="Helvetica,sans-Serif" font-size="14.00" fill="#000000">:core:data:local</text>
</g>
<!-- :app&#45;&gt;:core:data:local -->
<g id="edge6" class="edge">
<title>:app&#45;&gt;:core:data:local</title>
<path fill="none" stroke="#000000" d="M307.6697,-233.0448C243.2253,-230.1528 84.2361,-219.1187 51.8759,-180 37.1094,-162.1495 46.8249,-136.3 58.3498,-116.8793"/>
<polygon fill="#ffff00" stroke="#000000" points="61.4604,-118.5102 63.8715,-108.1934 55.553,-114.7548 61.4604,-118.5102"/>
</g>
<!-- :core:data:remote -->
<g id="node8" class="node">
<title>:core:data:remote</title>
<polygon fill="none" stroke="#000000" points="276.5719,-108 151.1799,-108 151.1799,-72 276.5719,-72 276.5719,-108"/>
<text text-anchor="middle" x="213.8759" y="-85.8" font-family="Helvetica,sans-Serif" font-size="14.00" fill="#000000">:core:data:remote</text>
</g>
<!-- :app&#45;&gt;:core:data:remote -->
<g id="edge7" class="edge">
<title>:app&#45;&gt;:core:data:remote</title>
<path fill="none" stroke="#000000" d="M307.8213,-229.7836C280.0804,-223.8869 238.2065,-210.2724 217.8759,-180 205.8097,-162.0333 205.619,-137.1943 207.9912,-118.1617"/>
<polygon fill="#ffff00" stroke="#000000" points="211.4523,-118.6818 209.5136,-108.2659 204.5337,-117.6174 211.4523,-118.6818"/>
</g>
<!-- :core:data:hubSrc -->
<g id="node9" class="node">
<title>:core:data:hubSrc</title>
<polygon fill="none" stroke="#000000" points="353.3578,-180 226.394,-180 226.394,-144 353.3578,-144 353.3578,-180"/>
<text text-anchor="middle" x="289.8759" y="-157.8" font-family="Helvetica,sans-Serif" font-size="14.00" fill="#000000">:core:data:hubSrc</text>
</g>
<!-- :app&#45;&gt;:core:data:hubSrc -->
<g id="edge8" class="edge">
<title>:app&#45;&gt;:core:data:hubSrc</title>
<path fill="none" stroke="#000000" d="M323.5205,-215.8314C318.4433,-207.7079 312.3532,-197.9637 306.7583,-189.0118"/>
<polygon fill="#ffff00" stroke="#000000" points="309.6522,-187.0383 301.3842,-180.4133 303.7162,-190.7483 309.6522,-187.0383"/>
</g>
<!-- :libraries:arch -->
<g id="node10" class="node">
<title>:libraries:arch</title>
<polygon fill="none" stroke="#000000" points="430.8717,-36 330.8801,-36 330.8801,0 430.8717,0 430.8717,-36"/>
<text text-anchor="middle" x="380.8759" y="-13.8" font-family="Helvetica,sans-Serif" font-size="14.00" fill="#000000">:libraries:arch</text>
</g>
<!-- :app&#45;&gt;:libraries:arch -->
<g id="edge9" class="edge">
<title>:app&#45;&gt;:libraries:arch</title>
<path fill="none" stroke="#000000" d="M346.0422,-215.6679C351.7059,-205.5123 358.1569,-192.4537 361.8759,-180 375.4167,-134.657 379.3755,-79.4814 380.4921,-46.6311"/>
<polygon fill="#ff0000" stroke="#000000" points="383.9973,-46.4848 380.7716,-36.3929 376.9999,-46.2937 383.9973,-46.4848"/>
</g>
<!-- :libraries:design -->
<g id="node11" class="node">
<title>:libraries:design</title>
<polygon fill="none" stroke="#000000" points="522.8829,-108 408.8689,-108 408.8689,-72 522.8829,-72 522.8829,-108"/>
<text text-anchor="middle" x="465.8759" y="-85.8" font-family="Helvetica,sans-Serif" font-size="14.00" fill="#000000">:libraries:design</text>
</g>
<!-- :app&#45;&gt;:libraries:design -->
<g id="edge10" class="edge">
<title>:app&#45;&gt;:libraries:design</title>
<path fill="none" stroke="#000000" d="M356.8039,-215.8484C368.5447,-205.7456 382.9931,-192.6799 394.8759,-180 413.7905,-159.8165 433.0951,-135.0203 446.7909,-116.5694"/>
<polygon fill="#ff0000" stroke="#000000" points="449.7491,-118.4545 452.852,-108.3242 444.109,-114.3084 449.7491,-118.4545"/>
</g>
<!-- :features:home&#45;&gt;:core:data:local -->
<g id="edge18" class="edge">
<title>:features:home&#45;&gt;:core:data:local</title>
<path fill="none" stroke="#000000" d="M106.2869,-143.8314C102.0442,-135.7925 96.9638,-126.1666 92.2799,-117.2918"/>
<polygon fill="#000000" stroke="#000000" points="95.357,-115.6235 87.594,-108.4133 89.1663,-118.8908 95.357,-115.6235"/>
</g>
<!-- :features:filter&#45;&gt;:core:common:navigation -->
<g id="edge20" class="edge">
<title>:features:filter&#45;&gt;:core:common:navigation</title>
<path fill="none" stroke="#000000" d="M529.6804,-143.8314C546.4622,-134.5368 567.0744,-123.1208 584.9922,-113.1971"/>
<polygon fill="#000000" stroke="#000000" points="587.0298,-116.0696 594.0819,-108.1628 583.6382,-109.9461 587.0298,-116.0696"/>
</g>
<!-- :features:filter&#45;&gt;:libraries:design -->
<g id="edge19" class="edge">
<title>:features:filter&#45;&gt;:libraries:design</title>
<path fill="none" stroke="#000000" d="M489.0533,-143.8314C485.665,-135.9617 481.6218,-126.5712 477.8683,-117.8533"/>
<polygon fill="#000000" stroke="#000000" points="480.9732,-116.214 473.8038,-108.4133 474.5438,-118.9822 480.9732,-116.214"/>
</g>
<!-- :core:data:local&#45;&gt;:core:common:domain -->
<g id="edge11" class="edge">
<title>:core:data:local&#45;&gt;:core:common:domain</title>
<path fill="none" stroke="#000000" d="M95.0352,-71.8314C103.0271,-63.3694 112.6797,-53.1489 121.4175,-43.8971"/>
<polygon fill="#000000" stroke="#000000" points="124.1639,-46.0866 128.4856,-36.4133 119.0748,-41.2802 124.1639,-46.0866"/>
</g>
<!-- :core:data:remote&#45;&gt;:core:common:domain -->
<g id="edge12" class="edge">
<title>:core:data:remote&#45;&gt;:core:common:domain</title>
<path fill="none" stroke="#000000" d="M196.7166,-71.8314C188.7248,-63.3694 179.0721,-53.1489 170.3343,-43.8971"/>
<polygon fill="#000000" stroke="#000000" points="172.677,-41.2802 163.2662,-36.4133 167.5879,-46.0866 172.677,-41.2802"/>
</g>
<!-- :core:data:hubSrc&#45;&gt;:core:common:domain -->
<g id="edge15" class="edge">
<title>:core:data:hubSrc&#45;&gt;:core:common:domain</title>
<path fill="none" stroke="#000000" d="M294.4312,-143.91C298.2506,-124.2822 300.9448,-92.9503 285.8759,-72 277.471,-60.3146 250.2348,-48.6553 221.9913,-39.1771"/>
<polygon fill="#000000" stroke="#000000" points="222.9926,-35.8223 212.4002,-36.0495 220.8224,-42.4774 222.9926,-35.8223"/>
</g>
<!-- :core:data:hubSrc&#45;&gt;:core:data:local -->
<g id="edge13" class="edge">
<title>:core:data:hubSrc&#45;&gt;:core:data:local</title>
<path fill="none" stroke="#000000" d="M236.653,-143.9243C207.5454,-134.0387 171.3093,-121.7321 140.8065,-111.3726"/>
<polygon fill="#000000" stroke="#000000" points="141.7151,-107.9849 131.1207,-108.0831 139.464,-114.6131 141.7151,-107.9849"/>
</g>
<!-- :core:data:hubSrc&#45;&gt;:core:data:remote -->
<g id="edge14" class="edge">
<title>:core:data:hubSrc&#45;&gt;:core:data:remote</title>
<path fill="none" stroke="#000000" d="M270.6979,-143.8314C261.5171,-135.1337 250.3753,-124.5783 240.3983,-115.1265"/>
<polygon fill="#000000" stroke="#000000" points="242.7144,-112.4995 233.0478,-108.1628 237.9002,-117.5811 242.7144,-112.4995"/>
</g>
<!-- :core:data:hubSrc&#45;&gt;:libraries:arch -->
<g id="edge16" class="edge">
<title>:core:data:hubSrc&#45;&gt;:libraries:arch</title>
<path fill="none" stroke="#000000" d="M301.4011,-143.7623C317.196,-118.7682 345.6814,-73.6924 363.914,-44.8409"/>
<polygon fill="#000000" stroke="#000000" points="367.0608,-46.4129 369.4443,-36.0896 361.1434,-42.6734 367.0608,-46.4129"/>
</g>
<!-- :libraries:design&#45;&gt;:libraries:arch -->
<g id="edge17" class="edge">
<title>:libraries:design&#45;&gt;:libraries:arch</title>
<path fill="none" stroke="#000000" d="M444.4268,-71.8314C434.0581,-63.0485 421.453,-52.3712 410.2114,-42.8489"/>
<polygon fill="#000000" stroke="#000000" points="412.2108,-39.9556 402.3181,-36.1628 407.6864,-45.297 412.2108,-39.9556"/>
</g>
</g>
</svg>
